<svg xmlns="http://www.w3.org/2000/svg" width="50" height="50" viewBox="0 0 50 50">
  <defs>
    <style>
      .cls-1 {
        fill: #dfe0e5;
      }

      .cls-2 {
        fill: #a0a2ac;
        fill-rule: evenodd;
      }
    </style>
  </defs>
  <rect id="Rounded_Rectangle_4" data-name="Rounded Rectangle 4" class="cls-1" width="50" height="50" rx="5" ry="5"/>
  <path id="Forma_1" data-name="Forma 1" class="cls-2" d="M39.146,36.506a19.864,19.864,0,0,0-7.6-4.887,11.935,11.935,0,0,0,5.022-9.769A11.726,11.726,0,0,0,25,9.995,11.726,11.726,0,0,0,13.435,21.85a11.935,11.935,0,0,0,5.022,9.769,19.865,19.865,0,0,0-7.6,4.887C7.076,40.379,5,44.528,5,50.005H8.121c0-9.54,7.572-16.3,16.879-16.3s16.879,6.761,16.879,16.3H45C45,44.528,42.924,40.379,39.146,36.506ZM25,30.5a8.653,8.653,0,1,1,8.44-8.651A8.557,8.557,0,0,1,25,30.5Z"/>
</svg>
